<?xml version="1.0" encoding="utf-8"?>
<!-- Generator: Adobe Illustrator 16.0.0, SVG Export Plug-In . SVG Version: 6.00 Build 0)  -->
<!DOCTYPE svg PUBLIC "-//W3C//DTD SVG 1.1//EN" "http://www.w3.org/Graphics/SVG/1.1/DTD/svg11.dtd">
<svg version="1.1" id="Layer_1" xmlns="http://www.w3.org/2000/svg" xmlns:xlink="http://www.w3.org/1999/xlink" x="0px" y="0px"
	 width="841.89px" height="595.28px" viewBox="0 0 841.89 595.28" enable-background="new 0 0 841.89 595.28" xml:space="preserve">
<g>
	<g>
		<path fill="#B85047" d="M131.049,395.819H78.475v-59.826c0-14.519,11.77-26.287,26.287-26.287l0,0
			c14.518,0,26.287,11.769,26.287,26.287V395.819z"/>
	</g>
	<g>
		<path fill="#B85047" d="M112.928,405.298H71.799v-78.644c0-11.356,9.207-20.564,20.564-20.564l0,0
			c11.358,0,20.565,9.208,20.565,20.564V405.298z"/>
	</g>
	<g>
		<path fill="#B3DAF1" d="M122.747,385.045H87.854c-9.919,0-17.96,8.04-17.96,17.961v7.911h70.814v-7.911
			C140.707,393.085,132.666,385.045,122.747,385.045z"/>
	</g>
	<g>
		<path fill="#F9A141" d="M109.366,389.876h-8.134c-2.528,0-4.576-2.047-4.576-4.575v-15.698h17.286v15.698
			C113.941,387.829,111.893,389.876,109.366,389.876z"/>
	</g>
	<g>
		<path fill="#FBB366" d="M117.662,321.599c4.656,0,8.429,3.775,8.429,8.429v30.001c0,11.483-16.227,19.84-20.791,19.837
			c-4.564-0.002-20.792-8.354-20.792-19.837v-16.065c0-12.351,10.013-22.364,22.364-22.364H117.662z"/>
	</g>
	<g>
		<path fill="#F9A141" d="M128.584,342.905h-2.493v17.798h2.493c1.571,0,2.845-1.273,2.845-2.845v-12.109
			C131.429,344.179,130.156,342.905,128.584,342.905z"/>
	</g>
	<g>
		<path fill="#F9A141" d="M82.016,342.905L82.016,342.905c1.376,0,2.493,1.116,2.493,2.493v15.305h-2.493
			c-1.57,0-2.844-1.273-2.844-2.845v-12.109C79.172,344.179,80.445,342.905,82.016,342.905z"/>
	</g>
	<g>
		<path fill="#B85047" d="M126.569,337.88h-2.673c-8.111,0-14.686-6.575-14.686-14.687v-2.309h9.526
			c4.326,0,7.833,3.506,7.833,7.833V337.88z"/>
	</g>
	<g>
		<path fill="#B85047" d="M122.53,340.925c0,0-2.514-2.35-7.247-0.657c-4.733,1.693-5.188,5.103-5.188,5.103L122.53,340.925z"/>
	</g>
	<g>
		<path fill="#B85047" d="M89.113,340.925c0,0,2.514-2.35,7.247-0.657c4.732,1.693,5.188,5.103,5.188,5.103L89.113,340.925z"/>
	</g>
	<g>
		<path fill="#F9A141" d="M101.54,354.893c0,0,0.933,2.482,3.906,2.482c2.972,0,3.905-2.482,3.905-2.482H101.54z"/>
	</g>
	<g>
		<path fill="#5D352C" d="M116.091,368.22c-0.244,0-0.486-0.093-0.672-0.278c-0.052-0.051-3.956-3.834-9.973-3.834
			c-6.062,0-9.935,3.796-9.972,3.834c-0.374,0.372-0.976,0.372-1.35-0.002c-0.372-0.371-0.371-0.976,0.001-1.348
			c0.18-0.181,4.477-4.392,11.321-4.392c6.842,0,11.14,4.211,11.319,4.392c0.372,0.372,0.373,0.977,0.001,1.348
			C116.579,368.127,116.335,368.22,116.091,368.22z"/>
	</g>
	<g>
		<circle fill="#5D352C" cx="94.525" cy="348.663" r="2.922"/>
	</g>
	<g>
		<circle fill="#5D352C" cx="115.567" cy="349.008" r="2.922"/>
	</g>
</g>

<g>
	<g>
		<path fill="#B85047" d="M237.594,395.817H185.02v-59.826c0-14.518,11.769-26.287,26.287-26.287l0,0
			c14.518,0,26.287,11.77,26.287,26.287V395.817z"/>
	</g>
	<g>
		<path fill="#B85047" d="M219.473,405.298h-41.129v-78.644c0-11.358,9.208-20.564,20.564-20.564l0,0
			c11.358,0,20.565,9.206,20.565,20.564V405.298z"/>
	</g>
	<g>
		<path fill="#B3DAF1" d="M229.291,385.045h-34.893c-9.919,0-17.96,8.04-17.96,17.959v7.913h70.814v-7.913
			C247.251,393.085,239.209,385.045,229.291,385.045z"/>
	</g>
	<g>
		<path fill="#F9A141" d="M215.91,389.876h-8.134c-2.527,0-4.576-2.049-4.576-4.576v-15.698h17.287V385.3
			C220.487,387.827,218.438,389.876,215.91,389.876z"/>
	</g>
	<g>
		<path fill="#FBB366" d="M224.208,321.599c4.654,0,8.429,3.773,8.429,8.429v29.999c0,11.482-16.228,19.84-20.792,19.838
			c-4.564-0.004-20.791-8.355-20.791-19.838v-16.063c0-12.353,10.012-22.364,22.363-22.364H224.208z"/>
	</g>
	<g>
		<path fill="#F9A141" d="M235.129,342.904h-2.493v17.799h2.493c1.571,0,2.845-1.273,2.845-2.846v-12.108
			C237.974,344.178,236.7,342.904,235.129,342.904z"/>
	</g>
	<g>
		<path fill="#F9A141" d="M188.561,342.904L188.561,342.904c1.376,0,2.493,1.116,2.493,2.492v15.307h-2.493
			c-1.571,0-2.845-1.273-2.845-2.846v-12.108C185.716,344.178,186.99,342.904,188.561,342.904z"/>
	</g>
	<g>
		<path fill="#B85047" d="M233.113,337.878h-2.673c-8.111,0-14.686-6.573-14.686-14.685v-2.311h9.526
			c4.326,0,7.833,3.508,7.833,7.833V337.878z"/>
	</g>
	<g>
		<path fill="#5D352C" d="M201.764,354.328c-2.136,0-3.875-1.738-3.875-3.874c0-0.526,0.426-0.954,0.954-0.954
			c0.526,0,0.954,0.428,0.954,0.954c0,1.085,0.882,1.967,1.967,1.967s1.968-0.882,1.968-1.967c0-0.526,0.427-0.954,0.954-0.954
			c0.526,0,0.954,0.428,0.954,0.954C205.639,352.59,203.9,354.328,201.764,354.328z"/>
	</g>
	<g>
		<path fill="#5D352C" d="M221.853,354.328c-2.137,0-3.876-1.738-3.876-3.874c0-0.526,0.428-0.954,0.954-0.954
			c0.528,0,0.954,0.428,0.954,0.954c0,1.085,0.883,1.967,1.969,1.967c1.085,0,1.967-0.882,1.967-1.967
			c0-0.526,0.428-0.954,0.954-0.954c0.528,0,0.954,0.428,0.954,0.954C225.727,352.59,223.989,354.328,221.853,354.328z"/>
	</g>
	<g>
		<path fill="#B85047" d="M194.512,344.956c0,0,0.665-3.375,5.492-4.772c4.828-1.398,7.193,1.1,7.193,1.1L194.512,344.956z"/>
	</g>
	<g>
		<path fill="#B85047" d="M228.1,344.56c0,0-0.664-3.375-5.491-4.774c-4.828-1.397-7.193,1.101-7.193,1.101L228.1,344.56z"/>
	</g>
	<g>
		<path fill="#F9A141" d="M207.825,354.812c0,0,0.933,2.482,3.905,2.482s3.905-2.482,3.905-2.482H207.825z"/>
	</g>
	<g>
		<path fill="#5D352C" d="M216.434,365.208h-9.064c-0.526,0-0.954-0.427-0.954-0.954c0-0.525,0.428-0.953,0.954-0.953h9.064
			c0.526,0,0.954,0.428,0.954,0.953C217.388,364.781,216.96,365.208,216.434,365.208z"/>
	</g>
</g>

<g>
	<g>
		<path fill="#B85047" d="M344.137,395.817h-52.573v-59.826c0-14.518,11.769-26.287,26.287-26.287l0,0
			c14.518,0,26.286,11.77,26.286,26.287V395.817z"/>
	</g>
	<g>
		<path fill="#B85047" d="M326.017,405.296h-41.128v-78.642c0-11.358,9.206-20.565,20.564-20.565l0,0
			c11.357,0,20.564,9.207,20.564,20.565V405.296z"/>
	</g>
	<g>
		<path fill="#B3DAF1" d="M335.835,385.043h-34.893c-9.919,0-17.96,8.041-17.96,17.961v7.913h70.813v-7.913
			C353.795,393.084,345.755,385.043,335.835,385.043z"/>
	</g>
	<g>
		<path fill="#F9A141" d="M322.455,389.875h-8.135c-2.527,0-4.575-2.048-4.575-4.575v-15.698h17.286V385.3
			C327.03,387.827,324.982,389.875,322.455,389.875z"/>
	</g>
	<g>
		<path fill="#FBB366" d="M330.751,321.599c4.655,0,8.429,3.773,8.429,8.429v29.999c0,11.482-16.227,19.84-20.792,19.838
			c-4.563-0.004-20.79-8.355-20.79-19.838v-16.063c0-12.353,10.012-22.364,22.362-22.364H330.751z"/>
	</g>
	<g>
		<path fill="#F9A141" d="M341.674,342.904h-2.493v17.799h2.493c1.57,0,2.844-1.273,2.844-2.846v-12.108
			C344.518,344.178,343.245,342.904,341.674,342.904z"/>
	</g>
	<g>
		<path fill="#F9A141" d="M295.104,342.904L295.104,342.904c1.377,0,2.494,1.116,2.494,2.492v15.307h-2.494
			c-1.571,0-2.844-1.273-2.844-2.846v-12.108C292.26,344.178,293.534,342.904,295.104,342.904z"/>
	</g>
	<g>
		<path fill="#B85047" d="M339.658,337.88h-2.673c-8.11,0-14.685-6.575-14.685-14.687v-2.311h9.525c4.325,0,7.833,3.508,7.833,7.833
			V337.88z"/>
	</g>
	<g>
		<path fill="#F9A141" d="M314.482,354.564c0,0,0.932,2.483,3.905,2.483c2.973,0,3.905-2.483,3.905-2.483H314.482z"/>
	</g>
	<g>
		<path fill="#5D352C" d="M328.685,369.602c0-3.244-2.431-6.03-5.936-7.304c0,0,0,0,0-0.011c-1.325-0.489-2.797-0.76-4.361-0.76
			c-1.564,0-3.036,0.271-4.361,0.76c0,0.011,0,0.011,0,0.011c-3.505,1.273-5.936,4.06-5.936,7.304H328.685z"/>
	</g>
	<g>
		<path fill="#B85047" d="M313.539,340.841c0,0-1.525-3.057-6.388-3.057c-4.862,0-6.387,3.057-6.387,3.057H313.539z"/>
	</g>
	<g>
		<path fill="#B85047" d="M336.011,340.841c0,0-1.577-3.057-6.603-3.057c-5.026,0-6.603,3.057-6.603,3.057H336.011z"/>
	</g>
	<g>
		<circle fill="#FFFFFF" cx="307.579" cy="349.954" r="4.977"/>
	</g>
	<g>
		<circle fill="#5D352C" cx="307.579" cy="349.954" r="2.922"/>
	</g>
	<g>
		<path fill="#FFFFFF" d="M333.598,350.298c0,2.75-2.227,4.979-4.977,4.979c-2.749,0-4.977-2.229-4.977-4.979
			c0-2.747,2.228-4.977,4.977-4.977C331.371,345.321,333.598,347.551,333.598,350.298z"/>
	</g>
	<g>
		<circle fill="#5D352C" cx="328.621" cy="350.298" r="2.922"/>
	</g>
</g>

<g>
	<g>
		<path fill="#B85047" d="M450.683,395.818h-52.574v-59.825c0-14.519,11.769-26.287,26.287-26.287l0,0
			c14.519,0,26.287,11.769,26.287,26.287V395.818z"/>
	</g>
	<g>
		<path fill="#B85047" d="M432.562,405.298h-41.13v-78.644c0-11.356,9.208-20.564,20.566-20.564l0,0
			c11.356,0,20.564,9.208,20.564,20.564V405.298z"/>
	</g>
	<g>
		<path fill="#B3DAF1" d="M442.379,385.045h-34.892c-9.918,0-17.961,8.04-17.961,17.96v7.912h70.814v-7.912
			C460.341,393.085,452.3,385.045,442.379,385.045z"/>
	</g>
	<g>
		<path fill="#F9A141" d="M429,389.876h-8.135c-2.528,0-4.577-2.049-4.577-4.575v-15.698h17.287v15.698
			C433.575,387.827,431.526,389.876,429,389.876z"/>
	</g>
	<g>
		<path fill="#FBB366" d="M437.296,321.599c4.655,0,8.429,3.774,8.429,8.429v30c0,11.482-16.227,19.84-20.791,19.838
			c-4.564-0.003-20.792-8.355-20.792-19.838v-16.064c0-12.351,10.013-22.364,22.364-22.364H437.296z"/>
	</g>
	<g>
		<path fill="#F9A141" d="M448.219,342.905h-2.492v17.798h2.492c1.57,0,2.844-1.273,2.844-2.845v-12.109
			C451.062,344.179,449.789,342.905,448.219,342.905z"/>
	</g>
	<g>
		<path fill="#F9A141" d="M401.649,342.905L401.649,342.905c1.376,0,2.493,1.116,2.493,2.493v15.305h-2.493
			c-1.57,0-2.844-1.273-2.844-2.845v-12.109C398.806,344.179,400.079,342.905,401.649,342.905z"/>
	</g>
	<g>
		<path fill="#F9A141" d="M429.293,372.762c-0.146,0.334-1.262,2.734-4.361,2.734c-3.097,0-4.213-2.4-4.36-2.734
			c1.324,0.491,2.795,0.762,4.36,0.762C426.497,373.523,427.968,373.253,429.293,372.762z"/>
	</g>
	<g>
		<path fill="#B85047" d="M446.203,337.88h-2.674c-8.111,0-14.685-6.575-14.685-14.687v-2.309h9.526
			c4.324,0,7.832,3.507,7.832,7.833V337.88z"/>
	</g>
	<g>
		<path fill="#B85047" d="M420.374,339.415c0,0-2.136-2.665-6.89-1.64c-4.751,1.026-5.597,4.338-5.597,4.338L420.374,339.415z"/>
	</g>
	<g>
		<path fill="#B85047" d="M442.109,342.338c0,0-0.799-3.347-5.678-4.553c-4.881-1.204-7.145,1.386-7.145,1.386L442.109,342.338z"/>
	</g>
	<g>
		<path fill="#F9A141" d="M420.853,354.361c0,0,0.933,2.484,3.906,2.484c2.972,0,3.904-2.484,3.904-2.484H420.853z"/>
	</g>
	<g>
		<path fill="#5D352C" d="M434.062,364.518c-1.229,0-1.869-0.786-2.292-1.305c-0.393-0.481-0.529-0.603-0.813-0.603
			c-0.285,0-0.423,0.121-0.814,0.603c-0.423,0.519-1.062,1.305-2.292,1.305s-1.867-0.786-2.29-1.306
			c-0.391-0.48-0.527-0.602-0.811-0.602s-0.419,0.121-0.811,0.602c-0.423,0.52-1.061,1.306-2.29,1.306
			c-1.228,0-1.868-0.786-2.29-1.306c-0.39-0.48-0.526-0.602-0.809-0.602c-0.283,0-0.417,0.12-0.807,0.601
			c-0.422,0.521-1.06,1.307-2.29,1.307c-0.526,0-0.954-0.427-0.954-0.953c0-0.527,0.428-0.954,0.954-0.954
			c0.283,0,0.419-0.12,0.809-0.601c0.421-0.521,1.06-1.307,2.288-1.307s1.868,0.785,2.29,1.307c0.39,0.48,0.526,0.601,0.809,0.601
			s0.419-0.12,0.811-0.601c0.423-0.521,1.061-1.307,2.29-1.307c1.229,0,1.867,0.785,2.29,1.307c0.392,0.48,0.528,0.601,0.811,0.601
			c0.285,0,0.421-0.12,0.814-0.602c0.423-0.521,1.062-1.306,2.292-1.306c1.229,0,1.869,0.785,2.291,1.306
			c0.392,0.481,0.529,0.602,0.814,0.602c0.525,0,0.954,0.427,0.954,0.954C435.017,364.091,434.588,364.518,434.062,364.518z"/>
	</g>
	<g>
		<path fill="#5D352C" d="M436.985,352.771c-0.146,0-0.292-0.033-0.43-0.103l-5.849-2.961c-0.32-0.163-0.522-0.492-0.522-0.851
			c0-0.36,0.202-0.688,0.522-0.851l5.849-2.962c0.472-0.239,1.042-0.05,1.282,0.42c0.237,0.47,0.049,1.043-0.422,1.281l-4.168,2.111
			l4.168,2.11c0.471,0.237,0.659,0.812,0.422,1.282C437.67,352.58,437.333,352.771,436.985,352.771z"/>
	</g>
	<g>
		<path fill="#5D352C" d="M413.018,352.771c-0.348,0-0.683-0.191-0.851-0.521c-0.239-0.471-0.051-1.045,0.419-1.282l4.168-2.11
			l-4.168-2.111c-0.47-0.238-0.658-0.812-0.419-1.281c0.237-0.47,0.811-0.657,1.28-0.42l5.849,2.962
			c0.321,0.162,0.524,0.49,0.524,0.851c0,0.358-0.203,0.688-0.524,0.851l-5.849,2.961
			C413.31,352.738,413.163,352.771,413.018,352.771z"/>
	</g>
</g>

<g>
	<g>
		<path fill="#B85047" d="M557.227,395.819h-52.573v-59.826c0-14.519,11.77-26.287,26.286-26.287l0,0
			c14.519,0,26.287,11.769,26.287,26.287V395.819z"/>
	</g>
	<g>
		<path fill="#B85047" d="M539.106,405.298h-41.129v-78.643c0-11.357,9.206-20.565,20.564-20.565l0,0
			c11.357,0,20.564,9.208,20.564,20.565V405.298z"/>
	</g>
	<g>
		<path fill="#B3DAF1" d="M548.925,385.045h-34.893c-9.919,0-17.961,8.04-17.961,17.959v7.913h70.813v-7.913
			C566.885,393.085,558.845,385.045,548.925,385.045z"/>
	</g>
	<g>
		<path fill="#F9A141" d="M535.544,389.876h-8.135c-2.526,0-4.576-2.049-4.576-4.575v-15.698h17.286v15.698
			C540.119,387.827,538.07,389.876,535.544,389.876z"/>
	</g>
	<g>
		<path fill="#FBB366" d="M543.841,321.6c4.655,0,8.428,3.774,8.428,8.429v30c0,11.482-16.227,19.84-20.791,19.837
			c-4.563-0.003-20.791-8.354-20.791-19.837v-16.065c0-12.351,10.013-22.363,22.363-22.363H543.841z"/>
	</g>
	<g>
		<path fill="#F9A141" d="M508.193,342.905L508.193,342.905c1.378,0,2.493,1.116,2.493,2.493v15.305h-2.493
			c-1.57,0-2.844-1.273-2.844-2.845v-12.109C505.35,344.179,506.623,342.905,508.193,342.905z"/>
	</g>
	<g>
		<path fill="#F9A141" d="M554.762,342.905L554.762,342.905c-1.376,0-2.493,1.116-2.493,2.493v15.305h2.493
			c1.571,0,2.845-1.273,2.845-2.845v-12.109C557.606,344.179,556.333,342.905,554.762,342.905z"/>
	</g>
	<g>
		<path fill="#B85047" d="M552.747,337.88h-2.673c-8.11,0-14.687-6.575-14.687-14.686v-2.31h9.527c4.325,0,7.832,3.507,7.832,7.833
			V337.88z"/>
	</g>
	<g>
		<path fill="#B85047" d="M527.397,340.322c0,0-2.137-2.666-6.889-1.639c-4.753,1.026-5.599,4.337-5.599,4.337L527.397,340.322z"/>
	</g>
	<g>
		<path fill="#B85047" d="M549.132,343.244c0,0-0.799-3.347-5.678-4.551c-4.88-1.205-7.144,1.385-7.144,1.385L549.132,343.244z"/>
	</g>
	<g>
		<path fill="#F9A141" d="M527.876,355.27c0,0,0.933,2.482,3.906,2.482c2.973,0,3.904-2.482,3.904-2.482H527.876z"/>
	</g>
	<g>
		<path fill="#5D352C" d="M544.889,351.045c-0.526,0-0.954-0.427-0.954-0.953c0-1.085-0.882-1.969-1.967-1.969
			S540,349.007,540,350.092c0,0.526-0.427,0.953-0.954,0.953c-0.526,0-0.953-0.427-0.953-0.953c0-2.137,1.738-3.876,3.875-3.876
			s3.875,1.739,3.875,3.876C545.843,350.618,545.416,351.045,544.889,351.045z"/>
	</g>
	<g>
		<path fill="#5D352C" d="M523.907,351.045c-0.526,0-0.954-0.427-0.954-0.953c0-1.085-0.882-1.969-1.967-1.969
			s-1.968,0.884-1.968,1.969c0,0.526-0.428,0.953-0.954,0.953s-0.954-0.427-0.954-0.953c0-2.137,1.739-3.876,3.876-3.876
			c2.136,0,3.874,1.739,3.874,3.876C524.86,350.618,524.435,351.045,523.907,351.045z"/>
	</g>
	<g>
		<path fill="#F9A141" d="M536.206,371.8c-0.146,0.333-1.262,2.733-4.359,2.733c-3.1,0-4.216-2.4-4.362-2.733
			c1.326,0.491,2.797,0.762,4.362,0.762C533.411,372.562,534.882,372.291,536.206,371.8z"/>
	</g>
	<g>
		<path fill="#FFFFFF" d="M542.141,360.652c0,1.211-0.343,2.365-0.944,3.396c-1.02,1.726-2.794,3.118-4.988,3.909c0,0,0,0,0,0.011
			c-1.325,0.485-2.804,0.763-4.367,0.763c-1.564,0-3.033-0.277-4.358-0.763c0-0.011,0-0.011,0-0.011
			c-2.194-0.791-3.968-2.184-4.989-3.909c-0.6-1.03-0.943-2.185-0.943-3.396H542.141z"/>
	</g>
	<g>
		<path fill="#5D352C" d="M541.196,364.048c-1.02,1.726-2.794,3.118-4.988,3.909c0,0,0,0,0,0.011
			c-1.325,0.485-2.804,0.763-4.367,0.763c-1.564,0-3.033-0.277-4.358-0.763c0-0.011,0-0.011,0-0.011
			c-2.194-0.791-3.968-2.184-4.989-3.909H541.196z"/>
	</g>
</g>

<g>
	<g>
		<path fill="#B85047" d="M663.771,395.817h-52.573v-59.826c0-14.518,11.77-26.287,26.287-26.287l0,0
			c14.518,0,26.286,11.77,26.286,26.287V395.817z"/>
	</g>
	<g>
		<path fill="#B85047" d="M645.651,405.297h-41.129v-78.643c0-11.358,9.207-20.564,20.564-20.564l0,0
			c11.356,0,20.564,9.206,20.564,20.564V405.297z"/>
	</g>
	<g>
		<path fill="#B3DAF1" d="M655.469,385.044h-34.892c-9.92,0-17.962,8.04-17.962,17.96v7.913h70.815v-7.913
			C673.431,393.084,665.389,385.044,655.469,385.044z"/>
	</g>
	<g>
		<path fill="#F9A141" d="M642.089,389.875h-8.135c-2.527,0-4.575-2.048-4.575-4.575v-15.698h17.286V385.3
			C646.665,387.827,644.615,389.875,642.089,389.875z"/>
	</g>
	<g>
		<path fill="#FBB366" d="M650.386,321.599c4.655,0,8.429,3.773,8.429,8.429v29.999c0,11.482-16.227,19.841-20.792,19.838
			c-4.564-0.003-20.791-8.355-20.791-19.838v-16.063c0-12.352,10.014-22.364,22.363-22.364H650.386z"/>
	</g>
	<g>
		<path fill="#F9A141" d="M614.739,342.904L614.739,342.904c1.376,0,2.492,1.116,2.492,2.493v15.306h-2.492
			c-1.57,0-2.845-1.273-2.845-2.846v-12.108C611.895,344.178,613.169,342.904,614.739,342.904z"/>
	</g>
	<g>
		<path fill="#B85047" d="M633.458,341.787c0,0-0.571-2.461-5.434-2.461s-7.341,2.461-7.341,2.461H633.458z"/>
	</g>
	<g>
		<path fill="#B85047" d="M655.93,341.787c0,0-2.53-2.461-7.556-2.461c-5.026,0-5.649,2.461-5.649,2.461H655.93z"/>
	</g>
	<g>
		<path fill="#F9A141" d="M634.116,354.396c0,0,0.932,2.483,3.905,2.483c2.973,0,3.905-2.483,3.905-2.483H634.116z"/>
	</g>
	<g>
		<path fill="#F9A141" d="M642.382,372.762c-0.146,0.333-1.262,2.733-4.36,2.733s-4.215-2.4-4.36-2.733
			c1.324,0.49,2.796,0.762,4.36,0.762S641.058,373.252,642.382,372.762z"/>
	</g>
	<g>
		<path fill="#B85047" d="M659.292,337.879h-2.673c-8.11,0-14.686-6.574-14.686-14.686v-2.311h9.525
			c4.326,0,7.833,3.508,7.833,7.833V337.879z"/>
	</g>
	<g>
		<path fill="#5D352C" d="M627.978,352.961c-2.138,0-3.875-1.738-3.875-3.876c0-0.526,0.427-0.954,0.953-0.954
			c0.527,0,0.954,0.428,0.954,0.954c0,1.086,0.882,1.968,1.968,1.968c1.085,0,1.968-0.882,1.968-1.968
			c0-0.526,0.427-0.954,0.954-0.954c0.525,0,0.953,0.428,0.953,0.954C631.853,351.223,630.114,352.961,627.978,352.961z"/>
	</g>
	<g>
		<path fill="#5D352C" d="M648.065,352.961c-2.136,0-3.874-1.738-3.874-3.876c0-0.526,0.426-0.954,0.953-0.954
			c0.526,0,0.954,0.428,0.954,0.954c0,1.086,0.882,1.968,1.967,1.968s1.968-0.882,1.968-1.968c0-0.526,0.428-0.954,0.954-0.954
			s0.954,0.428,0.954,0.954C651.941,351.223,650.202,352.961,648.065,352.961z"/>
	</g>
	<g>
		<path fill="#5D352C" d="M638.623,368.497c-6.844,0-11.14-4.212-11.319-4.392c-0.373-0.372-0.373-0.977-0.001-1.349
			s0.975-0.374,1.348-0.002c0.053,0.053,3.955,3.835,9.973,3.835c6.062,0,9.934-3.795,9.972-3.834
			c0.372-0.373,0.977-0.371,1.349,0.001s0.372,0.977-0.002,1.349C649.763,364.285,645.466,368.497,638.623,368.497z"/>
	</g>
	<g>
		<path fill="#F9A141" d="M661.307,343.863h-2.492v17.797h2.492c1.57,0,2.845-1.273,2.845-2.844v-12.109
			C664.151,345.137,662.877,343.863,661.307,343.863z"/>
	</g>
</g>

<g>
	<g>
		<path fill="#B85047" d="M770.316,395.816h-52.574v-59.824c0-14.519,11.769-26.287,26.287-26.287l0,0
			c14.518,0,26.287,11.769,26.287,26.287V395.816z"/>
	</g>
	<g>
		<path fill="#B85047" d="M752.195,405.297h-41.13v-78.643c0-11.358,9.208-20.564,20.564-20.564l0,0
			c11.358,0,20.565,9.206,20.565,20.564V405.297z"/>
	</g>
	<g>
		<path fill="#B3DAF1" d="M762.014,385.044H727.12c-9.919,0-17.96,8.04-17.96,17.959v7.913h70.813v-7.913
			C779.974,393.084,771.932,385.044,762.014,385.044z"/>
	</g>
	<g>
		<path fill="#F9A141" d="M748.632,389.875h-8.134c-2.527,0-4.576-2.049-4.576-4.576v-15.697h17.286v15.697
			C753.208,387.826,751.16,389.875,748.632,389.875z"/>
	</g>
	<g>
		<path fill="#FBB366" d="M756.93,321.599c4.654,0,8.429,3.773,8.429,8.429v29.999c0,11.482-16.228,19.84-20.791,19.838
			c-4.564-0.004-20.791-8.355-20.791-19.838v-16.063c0-12.352,10.012-22.364,22.363-22.364H756.93z"/>
	</g>
	<g>
		<path fill="#F9A141" d="M767.852,342.904h-2.493v17.799h2.493c1.571,0,2.845-1.273,2.845-2.846v-12.108
			C770.696,344.178,769.423,342.904,767.852,342.904z"/>
	</g>
	<g>
		<path fill="#F9A141" d="M721.283,342.904L721.283,342.904c1.377,0,2.493,1.116,2.493,2.493v15.306h-2.493
			c-1.571,0-2.845-1.273-2.845-2.846v-12.108C718.438,344.178,719.712,342.904,721.283,342.904z"/>
	</g>
	<g>
		<path fill="#B85047" d="M765.835,337.879h-2.672c-8.111,0-14.687-6.574-14.687-14.686v-2.31h9.525
			c4.326,0,7.833,3.507,7.833,7.833V337.879z"/>
	</g>
	<g>
		<path fill="#B85047" d="M739.717,341.156c0,0-1.525-3.059-6.388-3.059s-6.388,3.059-6.388,3.059H739.717z"/>
	</g>
	<g>
		<path fill="#B85047" d="M762.188,341.156c0,0-1.576-3.059-6.602-3.059c-5.027,0-6.604,3.059-6.604,3.059H762.188z"/>
	</g>
	<g>
		<path fill="#F9A141" d="M740.375,354.719c0,0,0.932,2.483,3.905,2.483c2.972,0,3.904-2.483,3.904-2.483H740.375z"/>
	</g>
	<g>
		<circle fill="#FFFFFF" cx="733.974" cy="349.674" r="4.978"/>
	</g>
	<g>
		<circle fill="#5D352C" cx="735.384" cy="348.123" r="2.921"/>
	</g>
	<g>
		<circle fill="#FFFFFF" cx="755.016" cy="350.019" r="4.978"/>
	</g>
	<g>
		<circle fill="#5D352C" cx="756.426" cy="348.469" r="2.921"/>
	</g>
	<g>
		<ellipse fill="#5D352C" cx="744.494" cy="367.53" rx="2.912" ry="5.06"/>
	</g>
</g>

</svg>
