<?xml version="1.0" encoding="utf-8"?>
<!-- Generator: Adobe Illustrator 16.0.0, SVG Export Plug-In . SVG Version: 6.00 Build 0)  -->
<!DOCTYPE svg PUBLIC "-//W3C//DTD SVG 1.1//EN" "http://www.w3.org/Graphics/SVG/1.1/DTD/svg11.dtd">
<svg version="1.1" id="Layer_1" xmlns="http://www.w3.org/2000/svg" xmlns:xlink="http://www.w3.org/1999/xlink" x="0px" y="0px"
	 width="841.89px" height="595.28px" viewBox="0 0 841.89 595.28" enable-background="new 0 0 841.89 595.28" xml:space="preserve">
<g>
	<g>
		<path fill="#F9A141" d="M660.529,197.463h-3.103v19.756h3.103c1.81,0,3.277-1.467,3.277-3.277v-13.203
			C663.807,198.93,662.339,197.463,660.529,197.463z"/>
	</g>
	<g>
		<path fill="#F9A141" d="M611.661,197.463h3.103v19.756h-3.103c-1.81,0-3.277-1.467-3.277-3.277v-13.203
			C608.384,198.93,609.852,197.463,611.661,197.463z"/>
	</g>
	<g>
		<g>
			<path fill="#5BA3D9" d="M653.993,243.675h-35.796c-10.175,0-18.424,8.249-18.424,18.424v8.117h72.644v-8.117
				C672.417,251.924,664.168,243.675,653.993,243.675z"/>
		</g>
		<g>
			<path fill="#F9A141" d="M640.266,248.938h-8.345c-2.592,0-4.693-2.102-4.693-4.694v-16.104h17.734v16.104
				C644.962,246.835,642.858,248.938,640.266,248.938z"/>
		</g>
		<g>
			<path fill="#FBB366" d="M657.427,178.218v42.413c0,7.515-5.426,13.598-12.119,13.598h-18.423c-6.694,0-12.12-6.083-12.12-13.598
				v-42.413c0-0.386,0.011-0.772,0.023-1.146c0.01-0.312,0.033-0.624,0.066-0.923c0.789-7.852,7.171-13.958,14.932-13.958h12.62
				c7.759,0,14.143,6.107,14.932,13.958c0.033,0.299,0.056,0.611,0.066,0.923C657.415,177.446,657.427,177.833,657.427,178.218z"/>
		</g>
		<g>
			<path fill="#FBB366" d="M638.246,239.812h-4.301c-4.844,0-8.771-3.927-8.771-8.771l0,0c0-4.844,3.927-8.771,8.771-8.771h4.301
				c4.845,0,8.77,3.927,8.77,8.771l0,0C647.016,235.884,643.091,239.812,638.246,239.812z"/>
		</g>
		<g>
			<path fill="#5D352C" d="M657.427,176.122v17.045h-0.346c-2.301,0-4.157-1.723-4.157-3.858v-6.037
				c0-1.812-1.579-3.279-3.536-3.279h-26.584c-1.945,0-3.535,1.467-3.535,3.279v6.037c0,2.135-1.857,3.858-4.159,3.858h-0.345
				v-17.045c0-0.222,0.011-0.444,0.023-0.656c0.01-0.278,0.033-0.556,0.066-0.822c0.789-7.005,7.171-12.453,14.932-12.453h12.62
				c7.759,0,14.143,5.448,14.932,12.453c0.033,0.267,0.056,0.544,0.066,0.822C657.415,175.678,657.427,175.9,657.427,176.122z"/>
		</g>
		<g>
			<path fill="#5D352C" d="M625.872,210.256c-2.192,0-3.977-1.783-3.977-3.976c0-0.541,0.438-0.979,0.979-0.979
				c0.542,0,0.979,0.438,0.979,0.979c0,1.113,0.906,2.019,2.02,2.019c1.112,0,2.019-0.905,2.019-2.019
				c0-0.541,0.438-0.979,0.979-0.979c0.54,0,0.979,0.438,0.979,0.979C629.848,208.473,628.064,210.256,625.872,210.256z"/>
		</g>
		<g>
			<path fill="#5D352C" d="M646.479,210.256c-2.192,0-3.976-1.783-3.976-3.976c0-0.541,0.438-0.979,0.978-0.979
				c0.54,0,0.979,0.438,0.979,0.979c0,1.113,0.907,2.019,2.02,2.019c1.113,0,2.018-0.905,2.018-2.019
				c0-0.541,0.438-0.979,0.979-0.979c0.541,0,0.979,0.438,0.979,0.979C650.454,208.473,648.672,210.256,646.479,210.256z"/>
		</g>
		<g>
			<path fill="#5D352C" d="M631.414,198.793c0,0-1.563-3.136-6.552-3.136c-4.987,0-6.553,3.136-6.553,3.136H631.414z"/>
		</g>
		<g>
			<path fill="#5D352C" d="M654.468,198.793c0,0-1.617-3.136-6.774-3.136c-5.155,0-6.772,3.136-6.772,3.136H654.468z"/>
		</g>
		<g>
			<path fill="#F9A141" d="M632.089,212.708c0,0,0.957,2.547,4.007,2.547c3.051,0,4.006-2.547,4.006-2.547H632.089z"/>
		</g>
		<g>
			<path fill="#F9A141" d="M640.569,230.568c-0.149,0.342-1.296,2.804-4.474,2.804c-3.179,0-4.323-2.462-4.474-2.804
				c1.359,0.503,2.869,0.781,4.474,0.781C637.701,231.35,639.211,231.071,640.569,230.568z"/>
		</g>
		<g>
			<path fill="#7B4539" d="M660.935,153.858h-11.316c-13.753,0-24.903,11.15-24.903,24.905v1.23h15.382
				c11.51,0,20.838-9.33,20.838-20.839V153.858z"/>
		</g>
		<g>
			<path fill="#915243" d="M668.204,161.548h-11.325c-9.708,0-17.575,7.869-17.575,17.577v0.868h11.323
				c9.707,0,17.577-7.869,17.577-17.577V161.548z"/>
		</g>
		<g>
			<path fill="#5D352C" d="M636.793,226.194c-7.021,0-11.428-4.321-11.613-4.505c-0.382-0.382-0.382-1.001,0-1.384
				c0.381-0.382,0.999-0.383,1.382-0.002c0.053,0.052,4.057,3.934,10.231,3.934c6.185,0,10.189-3.896,10.229-3.935
				c0.383-0.379,1.003-0.379,1.384,0.005c0.381,0.382,0.379,1-0.002,1.381C648.22,221.873,643.812,226.194,636.793,226.194z"/>
		</g>
	</g>
</g>

<g>
	<g>
		<path fill="#5BA3D9" d="M116.211,243.674H80.417c-10.176,0-18.425,8.25-18.425,18.425v8.118h72.645v-8.118
			C134.637,251.923,126.387,243.674,116.211,243.674z"/>
	</g>
	<g>
		<path fill="#F9A141" d="M102.485,248.937h-8.345c-2.592,0-4.694-2.102-4.694-4.694v-16.104h17.732v16.104
			C107.179,246.835,105.078,248.937,102.485,248.937z"/>
	</g>
	<g>
		<path fill="#FBB366" d="M119.645,178.218v42.413c0,7.515-5.426,13.597-12.119,13.597H89.103c-6.693,0-12.119-6.082-12.119-13.597
			v-42.413c0-0.386,0.01-0.773,0.022-1.146c0.011-0.312,0.033-0.624,0.066-0.922c0.79-7.852,7.171-13.959,14.933-13.959h12.619
			c7.761,0,14.143,6.107,14.932,13.959c0.033,0.299,0.055,0.611,0.066,0.922C119.635,177.445,119.645,177.832,119.645,178.218z"/>
	</g>
	<g>
		<path fill="#FBB366" d="M100.464,239.811h-4.3c-4.844,0-8.771-3.927-8.771-8.771l0,0c0-4.844,3.927-8.771,8.771-8.771h4.3
			c4.844,0,8.771,3.927,8.771,8.771l0,0C109.235,235.884,105.309,239.811,100.464,239.811z"/>
	</g>
	<g>
		<path fill="#F9A141" d="M122.749,197.462h-3.104v19.756h3.104c1.809,0,3.276-1.467,3.276-3.277v-13.203
			C126.025,198.929,124.558,197.462,122.749,197.462z"/>
	</g>
	<g>
		<path fill="#F9A141" d="M73.879,197.462h3.103v19.756h-3.103c-1.81,0-3.276-1.467-3.276-3.277v-13.203
			C70.603,198.929,72.069,197.462,73.879,197.462z"/>
	</g>
	<g>
		<path fill="#5D352C" d="M119.645,176.122v17.045h-0.344c-2.301,0-4.158-1.724-4.158-3.858v-6.037c0-1.812-1.579-3.28-3.536-3.28
			H85.022c-1.945,0-3.536,1.468-3.536,3.28v6.037c0,2.135-1.857,3.858-4.158,3.858h-0.344v-17.045c0-0.222,0.01-0.444,0.022-0.656
			c0.011-0.278,0.033-0.556,0.066-0.823c0.79-7.005,7.171-12.453,14.933-12.453h12.619c7.761,0,14.143,5.448,14.932,12.453
			c0.033,0.267,0.055,0.544,0.066,0.823C119.635,175.678,119.645,175.9,119.645,176.122z"/>
	</g>
	<g>
		<path fill="#5D352C" d="M115.84,198.378c0,0-2.579-2.409-7.434-0.673c-4.855,1.736-5.323,5.234-5.323,5.234L115.84,198.378z"/>
	</g>
	<g>
		<path fill="#5D352C" d="M81.56,198.378c0,0,2.58-2.409,7.435-0.673c4.854,1.736,5.322,5.234,5.322,5.234L81.56,198.378z"/>
	</g>
	<g>
		<path fill="#F9A141" d="M94.308,212.707c0,0,0.957,2.547,4.007,2.547c3.049,0,4.006-2.547,4.006-2.547H94.308z"/>
	</g>
	<g>
		<path fill="#7B4539" d="M123.154,153.857h-11.316c-13.755,0-24.905,11.151-24.905,24.905v1.23h15.382
			c11.509,0,20.839-9.33,20.839-20.839V153.857z"/>
	</g>
	<g>
		<path fill="#915243" d="M130.422,161.548h-11.325c-9.706,0-17.576,7.869-17.576,17.577v0.868h11.325
			c9.708,0,17.576-7.869,17.576-17.577V161.548z"/>
	</g>
	<g>
		<path fill="#5D352C" d="M109.235,226.379c-0.25,0-0.499-0.095-0.69-0.285c-0.052-0.052-4.056-3.935-10.231-3.935
			c-6.184,0-10.191,3.896-10.23,3.935c-0.383,0.378-1.002,0.379-1.384-0.005c-0.38-0.382-0.38-1,0.003-1.381
			c0.183-0.185,4.592-4.505,11.611-4.505c7.02,0,11.429,4.321,11.612,4.505c0.383,0.381,0.383,1.001,0.002,1.383
			C109.737,226.284,109.486,226.379,109.235,226.379z"/>
	</g>
	<g>
		<circle fill="#5D352C" cx="87.112" cy="206.317" r="2.997"/>
	</g>
	<g>
		<circle fill="#5D352C" cx="108.698" cy="206.67" r="2.997"/>
	</g>
</g>

<g>
	<g>
		<path fill="#5BA3D9" d="M546.438,243.674h-35.796c-10.175,0-18.424,8.25-18.424,18.425v8.118h72.644v-8.118
			C564.861,251.923,556.612,243.674,546.438,243.674z"/>
	</g>
	<g>
		<path fill="#F9A141" d="M532.71,248.937h-8.345c-2.592,0-4.693-2.102-4.693-4.694v-16.104h17.732v16.104
			C537.404,246.835,535.303,248.937,532.71,248.937z"/>
	</g>
	<g>
		<path fill="#FBB366" d="M549.87,178.218v42.413c0,7.515-5.426,13.597-12.118,13.597h-18.425c-6.692,0-12.118-6.082-12.118-13.597
			v-42.413c0-0.386,0.011-0.773,0.022-1.146c0.011-0.312,0.033-0.624,0.066-0.922c0.789-7.852,7.172-13.959,14.932-13.959h12.621
			c7.759,0,14.143,6.107,14.931,13.959c0.034,0.299,0.056,0.611,0.067,0.922C549.859,177.445,549.87,177.832,549.87,178.218z"/>
	</g>
	<g>
		<path fill="#FBB366" d="M530.69,239.811h-4.301c-4.844,0-8.771-3.927-8.771-8.771l0,0c0-4.844,3.927-8.771,8.771-8.771h4.301
			c4.843,0,8.77,3.927,8.77,8.771l0,0C539.46,235.884,535.533,239.811,530.69,239.811z"/>
	</g>
	<g>
		<path fill="#F9A141" d="M552.974,197.462h-3.104v19.756h3.104c1.81,0,3.277-1.467,3.277-3.277v-13.203
			C556.251,198.929,554.783,197.462,552.974,197.462z"/>
	</g>
	<g>
		<path fill="#F9A141" d="M504.104,197.462h3.104v19.756h-3.104c-1.809,0-3.275-1.467-3.275-3.277v-13.203
			C500.828,198.929,502.295,197.462,504.104,197.462z"/>
	</g>
	<g>
		<path fill="#5D352C" d="M549.87,176.122v17.045h-0.345c-2.301,0-4.157-1.724-4.157-3.858v-6.037c0-1.812-1.579-3.28-3.536-3.28
			h-26.585c-1.944,0-3.535,1.468-3.535,3.28v6.037c0,2.135-1.857,3.858-4.158,3.858h-0.345v-17.045c0-0.222,0.011-0.444,0.022-0.656
			c0.011-0.278,0.033-0.556,0.066-0.823c0.789-7.005,7.172-12.453,14.932-12.453h12.621c7.759,0,14.143,5.448,14.931,12.453
			c0.034,0.267,0.056,0.544,0.067,0.823C549.859,175.678,549.87,175.9,549.87,176.122z"/>
	</g>
	<g>
		<path fill="#5D352C" d="M541.92,208.298c-0.54,0-0.979-0.438-0.979-0.979c0-1.113-0.905-2.019-2.018-2.019
			c-1.113,0-2.02,0.906-2.02,2.019c0,0.541-0.438,0.979-0.979,0.979c-0.539,0-0.978-0.438-0.978-0.979
			c0-2.192,1.783-3.975,3.976-3.975c2.191,0,3.974,1.783,3.974,3.975C542.897,207.86,542.46,208.298,541.92,208.298z"/>
	</g>
	<g>
		<path fill="#5D352C" d="M520.396,208.298c-0.541,0-0.979-0.438-0.979-0.979c0-1.113-0.906-2.019-2.02-2.019
			c-1.112,0-2.019,0.906-2.019,2.019c0,0.541-0.438,0.979-0.978,0.979c-0.541,0-0.979-0.438-0.979-0.979
			c0-2.192,1.782-3.975,3.975-3.975s3.977,1.783,3.977,3.975C521.375,207.86,520.937,208.298,520.396,208.298z"/>
	</g>
	<g>
		<path fill="#5D352C" d="M524.044,195.324c0,0-2.229-2.704-7.091-1.583c-4.859,1.121-5.68,4.529-5.68,4.529L524.044,195.324z"/>
	</g>
	<g>
		<path fill="#5D352C" d="M546.369,198.354c0,0-0.853-3.424-5.87-4.612c-5.018-1.187-7.313,1.493-7.313,1.493L546.369,198.354z"/>
	</g>
	<g>
		<path fill="#F9A141" d="M524.533,212.707c0,0,0.957,2.547,4.006,2.547c3.051,0,4.007-2.547,4.007-2.547H524.533z"/>
	</g>
	<g>
		<path fill="#F9A141" d="M533.014,230.568c-0.149,0.342-1.296,2.804-4.475,2.804c-3.178,0-4.323-2.462-4.473-2.804
			c1.359,0.503,2.868,0.781,4.473,0.781C530.145,231.349,531.654,231.071,533.014,230.568z"/>
	</g>
	<g>
		<path fill="#7B4539" d="M553.379,153.857h-11.316c-13.755,0-24.904,11.151-24.904,24.905v1.23h15.383
			c11.508,0,20.838-9.33,20.838-20.839V153.857z"/>
	</g>
	<g>
		<path fill="#915243" d="M560.647,161.548h-11.324c-9.708,0-17.576,7.869-17.576,17.577v0.868h11.324
			c9.707,0,17.576-7.869,17.576-17.577V161.548z"/>
	</g>
	<g>
		<path fill="#FFFFFF" d="M539.101,219.132c0,1.243-0.352,2.426-0.968,3.483c-1.047,1.771-2.867,3.199-5.117,4.011c0,0,0,0,0,0.01
			c-1.36,0.499-2.877,0.783-4.48,0.783c-1.605,0-3.111-0.284-4.472-0.783c0-0.01,0-0.01,0-0.01c-2.25-0.812-4.07-2.24-5.117-4.011
			c-0.616-1.057-0.969-2.24-0.969-3.483H539.101z"/>
	</g>
	<g>
		<path fill="#5D352C" d="M538.133,222.615c-1.047,1.771-2.867,3.199-5.117,4.011c0,0,0,0,0,0.01
			c-1.36,0.499-2.877,0.783-4.48,0.783c-1.605,0-3.111-0.284-4.472-0.783c0-0.01,0-0.01,0-0.01c-2.25-0.812-4.07-2.24-5.117-4.011
			H538.133z"/>
	</g>
</g>

<g>
	<g>
		<path fill="#5BA3D9" d="M223.767,243.675h-35.794c-10.176,0-18.424,8.249-18.424,18.424v8.117h72.644v-8.117
			C242.192,251.923,233.943,243.675,223.767,243.675z"/>
	</g>
	<g>
		<path fill="#F9A141" d="M210.041,248.937h-8.345c-2.592,0-4.694-2.102-4.694-4.694v-16.104h17.732v16.104
			C214.735,246.835,212.634,248.937,210.041,248.937z"/>
	</g>
	<g>
		<path fill="#FBB366" d="M227.201,178.218v42.413c0,7.515-5.426,13.598-12.119,13.598h-18.423c-6.694,0-12.12-6.083-12.12-13.598
			v-42.413c0-0.386,0.012-0.772,0.023-1.146c0.011-0.312,0.033-0.624,0.066-0.923c0.79-7.852,7.171-13.958,14.932-13.958h12.619
			c7.762,0,14.143,6.106,14.933,13.958c0.033,0.299,0.056,0.611,0.067,0.923C227.19,177.446,227.201,177.832,227.201,178.218z"/>
	</g>
	<g>
		<path fill="#FBB366" d="M208.02,239.811h-4.301c-4.843,0-8.77-3.927-8.77-8.771l0,0c0-4.844,3.927-8.771,8.77-8.771h4.301
			c4.844,0,8.771,3.927,8.771,8.771l0,0C216.791,235.884,212.864,239.811,208.02,239.811z"/>
	</g>
	<g>
		<path fill="#F9A141" d="M230.305,197.462h-3.104v19.757h3.104c1.81,0,3.276-1.468,3.276-3.277v-13.203
			C233.581,198.929,232.115,197.462,230.305,197.462z"/>
	</g>
	<g>
		<path fill="#F9A141" d="M181.435,197.462h3.103v19.757h-3.103c-1.81,0-3.277-1.468-3.277-3.277v-13.203
			C178.157,198.929,179.625,197.462,181.435,197.462z"/>
	</g>
	<g>
		<path fill="#5D352C" d="M227.201,176.122v17.045h-0.344c-2.302,0-4.159-1.724-4.159-3.858v-6.037c0-1.812-1.578-3.28-3.535-3.28
			h-26.585c-1.946,0-3.536,1.468-3.536,3.28v6.037c0,2.135-1.857,3.858-4.158,3.858h-0.345v-17.045c0-0.222,0.012-0.444,0.023-0.656
			c0.011-0.278,0.033-0.556,0.066-0.823c0.79-7.005,7.171-12.453,14.932-12.453h12.619c7.762,0,14.143,5.448,14.933,12.453
			c0.033,0.267,0.056,0.545,0.067,0.823C227.19,175.678,227.201,175.9,227.201,176.122z"/>
	</g>
	<g>
		<path fill="#5D352C" d="M195.646,212.212c-2.192,0-3.974-1.783-3.974-3.975c0-0.541,0.438-0.979,0.978-0.979
			c0.54,0,0.978,0.438,0.978,0.979c0,1.113,0.905,2.019,2.018,2.019c1.113,0,2.019-0.906,2.019-2.019
			c0-0.541,0.438-0.979,0.979-0.979c0.54,0,0.978,0.438,0.978,0.979C199.621,210.429,197.837,212.212,195.646,212.212z"/>
	</g>
	<g>
		<path fill="#5D352C" d="M216.253,212.212c-2.192,0-3.975-1.783-3.975-3.975c0-0.541,0.438-0.979,0.978-0.979
			s0.978,0.438,0.978,0.979c0,1.113,0.906,2.019,2.019,2.019c1.114,0,2.02-0.906,2.02-2.019c0-0.541,0.438-0.979,0.979-0.979
			c0.54,0,0.978,0.438,0.978,0.979C220.229,210.429,218.445,212.212,216.253,212.212z"/>
	</g>
	<g>
		<path fill="#5D352C" d="M188.207,202.598c0,0,0.681-3.463,5.634-4.897c4.952-1.435,7.379,1.128,7.379,1.128L188.207,202.598z"/>
	</g>
	<g>
		<path fill="#5D352C" d="M222.663,202.19c0,0-0.682-3.463-5.634-4.897c-4.953-1.435-7.379,1.128-7.379,1.128L222.663,202.19z"/>
	</g>
	<g>
		<path fill="#F9A141" d="M201.864,212.707c0,0,0.956,2.547,4.005,2.547c3.05,0,4.007-2.547,4.007-2.547H201.864z"/>
	</g>
	<g>
		<path fill="#F9A141" d="M210.343,230.568c-0.15,0.342-1.294,2.804-4.474,2.804c-3.177,0-4.323-2.461-4.474-2.804
			c1.36,0.503,2.868,0.781,4.474,0.781S208.984,231.071,210.343,230.568z"/>
	</g>
	<g>
		<path fill="#7B4539" d="M230.71,153.858h-11.316c-13.755,0-24.905,11.15-24.905,24.905v1.229h15.382
			c11.509,0,20.839-9.33,20.839-20.838V153.858z"/>
	</g>
	<g>
		<path fill="#915243" d="M237.978,161.548h-11.324c-9.707,0-17.577,7.869-17.577,17.576v0.868h11.325
			c9.708,0,17.576-7.869,17.576-17.576V161.548z"/>
	</g>
	<g>
		<path fill="#5D352C" d="M210.695,223.372h-9.298c-0.541,0-0.979-0.438-0.979-0.979c0-0.54,0.438-0.978,0.979-0.978h9.298
			c0.54,0,0.978,0.438,0.978,0.978C211.673,222.934,211.234,223.372,210.695,223.372z"/>
	</g>
</g>

<g>
	<g>
		<path fill="#5BA3D9" d="M438.88,243.675h-35.794c-10.176,0-18.424,8.249-18.424,18.424v8.117h72.644v-8.117
			C457.305,251.924,449.055,243.675,438.88,243.675z"/>
	</g>
	<g>
		<path fill="#F9A141" d="M425.153,248.938h-8.345c-2.592,0-4.694-2.102-4.694-4.694v-16.104h17.733v16.104
			C429.848,246.835,427.746,248.938,425.153,248.938z"/>
	</g>
	<g>
		<path fill="#FBB366" d="M442.312,178.219v42.412c0,7.515-5.426,13.598-12.118,13.598h-18.423c-6.694,0-12.12-6.083-12.12-13.598
			v-42.412c0-0.386,0.012-0.773,0.023-1.146c0.011-0.312,0.033-0.624,0.066-0.923c0.79-7.852,7.172-13.958,14.932-13.958h12.62
			c7.761,0,14.143,6.107,14.933,13.958c0.033,0.299,0.055,0.611,0.066,0.923C442.303,177.446,442.312,177.833,442.312,178.219z"/>
	</g>
	<g>
		<path fill="#FBB366" d="M423.133,239.812h-4.301c-4.843,0-8.77-3.927-8.77-8.771l0,0c0-4.844,3.927-8.771,8.77-8.771h4.301
			c4.844,0,8.771,3.927,8.771,8.771l0,0C431.903,235.884,427.977,239.812,423.133,239.812z"/>
	</g>
	<g>
		<path fill="#F9A141" d="M445.418,197.463h-3.105v19.756h3.105c1.809,0,3.275-1.467,3.275-3.277v-13.203
			C448.693,198.93,447.227,197.463,445.418,197.463z"/>
	</g>
	<g>
		<path fill="#F9A141" d="M396.547,197.463h3.103v19.756h-3.103c-1.81,0-3.277-1.467-3.277-3.277v-13.203
			C393.27,198.93,394.737,197.463,396.547,197.463z"/>
	</g>
	<g>
		<path fill="#5D352C" d="M442.312,176.123v17.044h-0.344c-2.303,0-4.158-1.724-4.158-3.858v-6.037c0-1.812-1.579-3.279-3.535-3.279
			H407.69c-1.946,0-3.536,1.467-3.536,3.279v6.037c0,2.135-1.857,3.858-4.158,3.858h-0.345v-17.044c0-0.223,0.012-0.445,0.023-0.656
			c0.011-0.278,0.033-0.556,0.066-0.823c0.79-7.005,7.172-12.453,14.932-12.453h12.62c7.761,0,14.143,5.448,14.933,12.453
			c0.033,0.267,0.055,0.544,0.066,0.823C442.303,175.678,442.312,175.9,442.312,176.123z"/>
	</g>
	<g>
		<path fill="#5D352C" d="M416.486,197.375c0,0-2.192-2.735-7.068-1.682c-4.875,1.053-5.742,4.449-5.742,4.449L416.486,197.375z"/>
	</g>
	<g>
		<path fill="#5D352C" d="M438.781,200.372c0,0-0.82-3.432-5.824-4.669c-5.006-1.236-7.328,1.421-7.328,1.421L438.781,200.372z"/>
	</g>
	<g>
		<path fill="#F9A141" d="M416.977,212.708c0,0,0.957,2.547,4.005,2.547c3.05,0,4.007-2.547,4.007-2.547H416.977z"/>
	</g>
	<g>
		<path fill="#F9A141" d="M425.456,230.568c-0.15,0.342-1.295,2.804-4.474,2.804c-3.177,0-4.323-2.462-4.473-2.804
			c1.359,0.503,2.867,0.781,4.473,0.781C422.588,231.35,424.097,231.071,425.456,230.568z"/>
	</g>
	<g>
		<path fill="#7B4539" d="M445.822,153.858h-11.316c-13.754,0-24.905,11.15-24.905,24.905v1.23h15.382
			c11.509,0,20.839-9.33,20.839-20.839V153.858z"/>
	</g>
	<g>
		<path fill="#915243" d="M453.09,161.548h-11.324c-9.707,0-17.576,7.869-17.576,17.577v0.868h11.324
			c9.708,0,17.576-7.87,17.576-17.577V161.548z"/>
	</g>
	<g>
		<path fill="#5D352C" d="M430.527,223.125c-1.262,0-1.918-0.806-2.352-1.339c-0.402-0.494-0.543-0.618-0.835-0.618
			s-0.433,0.124-0.835,0.618c-0.434,0.533-1.09,1.339-2.352,1.339c-1.26,0-1.916-0.806-2.35-1.34c-0.4-0.493-0.54-0.617-0.832-0.617
			c-0.29,0-0.43,0.124-0.83,0.617c-0.434,0.534-1.089,1.34-2.35,1.34c-1.261,0-1.916-0.806-2.35-1.34
			c-0.4-0.493-0.54-0.617-0.831-0.617c-0.289,0-0.429,0.124-0.828,0.616c-0.433,0.534-1.087,1.34-2.348,1.34
			c-0.541,0-0.978-0.438-0.978-0.978s0.438-0.979,0.978-0.979c0.289,0,0.429-0.124,0.828-0.616c0.433-0.534,1.087-1.34,2.348-1.34
			s1.916,0.806,2.35,1.34c0.401,0.493,0.54,0.617,0.831,0.617c0.29,0,0.43-0.124,0.83-0.617c0.435-0.534,1.089-1.34,2.35-1.34
			c1.261,0,1.917,0.806,2.349,1.34c0.402,0.493,0.542,0.617,0.832,0.617c0.293,0,0.434-0.124,0.835-0.618
			c0.435-0.533,1.091-1.339,2.352-1.339s1.918,0.806,2.351,1.339c0.402,0.494,0.543,0.618,0.836,0.618
			c0.539,0,0.979,0.438,0.979,0.979S431.066,223.125,430.527,223.125z"/>
	</g>
	<g>
		<path fill="#5D352C" d="M433.526,211.077c-0.148,0-0.3-0.034-0.442-0.106l-5.998-3.038c-0.33-0.167-0.537-0.504-0.537-0.873
			c0-0.369,0.207-0.706,0.537-0.873l5.998-3.038c0.483-0.244,1.071-0.051,1.316,0.431c0.244,0.482,0.05,1.071-0.432,1.315
			l-4.275,2.165l4.275,2.165c0.481,0.244,0.676,0.833,0.432,1.315C434.227,210.88,433.883,211.077,433.526,211.077z"/>
	</g>
	<g>
		<path fill="#5D352C" d="M408.939,211.077c-0.357,0-0.701-0.197-0.873-0.537c-0.245-0.482-0.052-1.071,0.43-1.315l4.276-2.165
			l-4.276-2.165c-0.482-0.244-0.675-0.833-0.43-1.315c0.244-0.482,0.833-0.675,1.314-0.431l6,3.038
			c0.328,0.167,0.536,0.504,0.536,0.873c0,0.369-0.208,0.706-0.536,0.873l-6,3.038C409.239,211.042,409.087,211.077,408.939,211.077
			z"/>
	</g>
</g>

<g>
	<g>
		<path fill="#5BA3D9" d="M331.324,243.675H295.53c-10.176,0-18.425,8.249-18.425,18.424v8.118h72.644v-8.118
			C349.748,251.923,341.5,243.675,331.324,243.675z"/>
	</g>
	<g>
		<path fill="#F9A141" d="M317.597,248.937h-8.344c-2.592,0-4.695-2.102-4.695-4.694v-16.104h17.733v16.104
			C322.292,246.835,320.19,248.937,317.597,248.937z"/>
	</g>
	<g>
		<path fill="#FBB366" d="M334.758,178.218v42.413c0,7.516-5.426,13.598-12.12,13.598h-18.424c-6.693,0-12.119-6.082-12.119-13.598
			v-42.413c0-0.386,0.01-0.773,0.022-1.146c0.011-0.311,0.034-0.623,0.067-0.922c0.79-7.852,7.171-13.959,14.933-13.959h12.619
			c7.761,0,14.143,6.107,14.932,13.959c0.033,0.299,0.055,0.611,0.066,0.922C334.747,177.445,334.758,177.833,334.758,178.218z"/>
	</g>
	<g>
		<path fill="#FBB366" d="M315.578,239.812h-4.301c-4.844,0-8.771-3.927-8.771-8.771l0,0c0-4.844,3.927-8.77,8.771-8.77h4.301
			c4.843,0,8.77,3.926,8.77,8.77l0,0C324.348,235.884,320.421,239.812,315.578,239.812z"/>
	</g>
	<g>
		<path fill="#F9A141" d="M337.861,197.463h-3.103v19.756h3.103c1.81,0,3.277-1.468,3.277-3.277v-13.203
			C341.138,198.929,339.67,197.463,337.861,197.463z"/>
	</g>
	<g>
		<path fill="#F9A141" d="M288.991,197.463h3.103v19.756h-3.103c-1.81,0-3.276-1.468-3.276-3.277v-13.203
			C285.715,198.929,287.181,197.463,288.991,197.463z"/>
	</g>
	<g>
		<path fill="#5D352C" d="M334.758,176.122v17.045h-0.345c-2.301,0-4.158-1.723-4.158-3.858v-6.038c0-1.812-1.579-3.28-3.536-3.28
			h-26.584c-1.946,0-3.536,1.468-3.536,3.28v6.038c0,2.135-1.857,3.858-4.159,3.858h-0.344v-17.045c0-0.222,0.01-0.444,0.022-0.656
			c0.011-0.278,0.034-0.556,0.067-0.823c0.79-7.005,7.171-12.453,14.933-12.453h12.619c7.761,0,14.143,5.448,14.932,12.453
			c0.033,0.267,0.055,0.545,0.066,0.823C334.747,175.678,334.758,175.9,334.758,176.122z"/>
	</g>
	<g>
		<path fill="#F9A141" d="M309.42,212.707c0,0,0.957,2.548,4.007,2.548c3.05,0,4.005-2.548,4.005-2.548H309.42z"/>
	</g>
	<g>
		<path fill="#7B4539" d="M338.267,153.858h-11.316c-13.755,0-24.905,11.15-24.905,24.904v1.23h15.382
			c11.509,0,20.839-9.33,20.839-20.839V153.858z"/>
	</g>
	<g>
		<path fill="#915243" d="M345.535,161.548H334.21c-9.708,0-17.576,7.87-17.576,17.577v0.868h11.325
			c9.707,0,17.576-7.87,17.576-17.577V161.548z"/>
	</g>
	<g>
		<path fill="#5D352C" d="M323.99,228.133c0-3.329-2.494-6.186-6.089-7.492c0,0,0,0,0-0.01c-1.36-0.503-2.868-0.782-4.474-0.782
			s-3.115,0.278-4.474,0.782c0,0.01,0,0.01,0,0.01c-3.596,1.306-6.09,4.163-6.09,7.492H323.99z"/>
	</g>
	<g>
		<path fill="#5D352C" d="M308.454,198.629c0,0-1.565-3.136-6.554-3.136s-6.552,3.136-6.552,3.136H308.454z"/>
	</g>
	<g>
		<path fill="#5D352C" d="M331.505,198.629c0,0-1.617-3.136-6.773-3.136c-5.156,0-6.773,3.136-6.773,3.136H331.505z"/>
	</g>
	<g>
		<g>
			<circle fill="#FFFFFF" cx="302.339" cy="207.978" r="5.105"/>
		</g>
		<g>
			<circle fill="#5D352C" cx="302.339" cy="207.978" r="2.997"/>
		</g>
	</g>
	<g>
		<g>
			<circle fill="#FFFFFF" cx="323.926" cy="208.332" r="5.106"/>
		</g>
		<g>
			<circle fill="#5D352C" cx="323.926" cy="208.332" r="2.997"/>
		</g>
	</g>
</g>

<g>
	<g>
		<path fill="#5BA3D9" d="M761.549,243.674h-35.795c-10.175,0-18.424,8.25-18.424,18.425v8.118h72.644v-8.118
			C779.974,251.923,771.724,243.674,761.549,243.674z"/>
	</g>
	<g>
		<path fill="#F9A141" d="M747.822,248.937h-8.345c-2.592,0-4.693-2.102-4.693-4.695v-16.104h17.732v16.104
			C752.517,246.835,750.415,248.937,747.822,248.937z"/>
	</g>
	<g>
		<path fill="#FBB366" d="M764.982,178.218v42.413c0,7.515-5.426,13.598-12.119,13.598h-18.424c-6.693,0-12.119-6.083-12.119-13.598
			v-42.413c0-0.387,0.012-0.773,0.022-1.146c0.012-0.312,0.033-0.624,0.066-0.922c0.789-7.853,7.172-13.958,14.932-13.958h12.62
			c7.761,0,14.143,6.106,14.932,13.958c0.033,0.298,0.057,0.61,0.067,0.922C764.972,177.445,764.982,177.832,764.982,178.218z"/>
	</g>
	<g>
		<path fill="#F9A141" d="M768.086,197.462h-3.104v19.756h3.104c1.81,0,3.276-1.467,3.276-3.276v-13.203
			C771.362,198.929,769.896,197.462,768.086,197.462z"/>
	</g>
	<g>
		<path fill="#F9A141" d="M719.216,197.462h3.104v19.756h-3.104c-1.81,0-3.277-1.467-3.277-3.276v-13.203
			C715.938,198.929,717.406,197.462,719.216,197.462z"/>
	</g>
	<g>
		<path fill="#5D352C" d="M764.982,176.122v17.044h-0.345c-2.302,0-4.158-1.723-4.158-3.858v-6.037c0-1.812-1.579-3.28-3.536-3.28
			h-26.584c-1.946,0-3.536,1.468-3.536,3.28v6.037c0,2.135-1.856,3.858-4.158,3.858h-0.345v-17.044c0-0.223,0.012-0.444,0.022-0.656
			c0.012-0.279,0.033-0.557,0.066-0.823c0.789-7.005,7.172-12.453,14.932-12.453h12.62c7.761,0,14.143,5.448,14.932,12.453
			c0.033,0.266,0.057,0.544,0.067,0.823C764.972,175.678,764.982,175.899,764.982,176.122z"/>
	</g>
	<g>
		<path fill="#5D352C" d="M738.971,198.793c0,0-1.564-3.136-6.552-3.136c-4.989,0-6.554,3.136-6.554,3.136H738.971z"/>
	</g>
	<g>
		<path fill="#5D352C" d="M762.022,198.793c0,0-1.617-3.136-6.772-3.136c-5.156,0-6.774,3.136-6.774,3.136H762.022z"/>
	</g>
	<g>
		<path fill="#F9A141" d="M739.646,212.707c0,0,0.956,2.547,4.006,2.547s4.007-2.547,4.007-2.547H739.646z"/>
	</g>
	<g>
		<path fill="#7B4539" d="M768.491,153.857h-11.316c-13.754,0-24.904,11.15-24.904,24.905v1.229h15.383
			c11.508,0,20.838-9.329,20.838-20.838V153.857z"/>
	</g>
	<g>
		<path fill="#915243" d="M775.76,161.548h-11.324c-9.708,0-17.577,7.869-17.577,17.576v0.868h11.325
			c9.707,0,17.576-7.869,17.576-17.576V161.548z"/>
	</g>
	<g>
		<g>
			<circle fill="#FFFFFF" cx="733.079" cy="207.531" r="5.106"/>
		</g>
		<g>
			<circle fill="#5D352C" cx="734.526" cy="205.941" r="2.997"/>
		</g>
	</g>
	<g>
		<g>
			<circle fill="#FFFFFF" cx="754.665" cy="207.885" r="5.106"/>
		</g>
		<g>
			<circle fill="#5D352C" cx="756.112" cy="206.295" r="2.997"/>
		</g>
	</g>
	<g>
		<path fill="#FBB366" d="M745.802,239.811h-4.301c-4.844,0-8.77-3.926-8.77-8.771l0,0c0-4.844,3.926-8.771,8.77-8.771h4.301
			c4.844,0,8.771,3.927,8.771,8.771l0,0C754.572,235.884,750.646,239.811,745.802,239.811z"/>
	</g>
	<g>
		<ellipse fill="#5D352C" cx="743.871" cy="225.849" rx="2.987" ry="5.191"/>
	</g>
</g>

</svg>
